<svg id="Layer_1" data-name="Layer 1" xmlns="http://www.w3.org/2000/svg" viewBox="0 0 119.5 115.85"><defs><style>.cls-1{fill:#e6e6e6;}</style></defs><path class="cls-1" d="M97.48,100a22,22,0,1,1,16.29-36.83h0A22,22,0,0,1,97.48,100Zm0-41a19,19,0,1,0,14.07,6.22A19,19,0,0,0,97.48,58.94Z"/><path class="cls-1" d="M53.79,115.85a2,2,0,0,1-1.27-3.55L79.44,90.19A2,2,0,1,1,82,93.28L55.06,115.4A2.05,2.05,0,0,1,53.79,115.85Z"/><path class="cls-1" d="M114.89,93.73a23.66,23.66,0,0,1-5.36,4.4v6.5a1,1,0,0,1-1,1H60a1,1,0,0,1-1-1V5.07a1,1,0,0,1,1-1h48.56a1,1,0,0,1,1,1V57.8a23.32,23.32,0,0,1,5.33,4.34l0,0m0,0V4a4,4,0,0,0-4-4H4A4,4,0,0,0,0,4V106.84a4,4,0,0,0,4,4H110.89a4,4,0,0,0,4-4V93.73m-59,10.9a1,1,0,0,1-1,1H6.36a1,1,0,0,1-1-1V5.07a1,1,0,0,1,1-1H54.92a1,1,0,0,1,1,1Z"/><path class="cls-1" d="M109.53,94.26a20.59,20.59,0,0,0,5.36-5.91"/><path class="cls-1" d="M114.89,67.53a20.07,20.07,0,0,0-5.36-5.89"/></svg>